<svg version="1.1" xmlns="http://www.w3.org/2000/svg" xmlns:xlink="http://www.w3.org/1999/xlink" width="24" height="24" viewBox="0,0,256,256"><g fill="#ffffff" fill-rule="evenodd" stroke="none" stroke-width="1" stroke-linecap="butt" stroke-linejoin="miter" stroke-miterlimit="10" stroke-dasharray="" stroke-dashoffset="0" font-family="none" font-weight="none" font-size="none" text-anchor="none" style="mix-blend-mode: normal"><g transform="translate(-5.60249,5.60481) scale(10.66667,10.66667)"><path d="M4.60626,5.95851c-1.04466,1.04465 -1.17326,2.69435 -0.30311,3.88828l3.1361,4.30301c0.67341,0.924 1.48675,1.7373 2.41073,2.4107l4.30302,3.1361c1.1939,0.8702 2.8436,0.7416 3.8883,-0.3031l2.6958,-2.6958c0.8559,-0.8559 0.7613,-2.27 -0.201,-3.0043l-2.3732,-1.8106c-0.7962,-0.6075 -1.9191,-0.5323 -2.6273,0.1759l-0.0944,0.0944c-0.3401,0.34 -0.8741,0.3899 -1.2712,0.1186l-0.0519,-0.0355c-0.9245,-0.6316 -1.723,-1.4301 -2.3545,-2.3545l-0.0355,-0.0519c-0.2713,-0.39712 -0.2214,-0.93112 0.1186,-1.27121l0.0944,-0.09437c0.7082,-0.70822 0.7834,-1.8311 0.1759,-2.62737l-1.8106,-2.37311c-0.73428,-0.96235 -2.14838,-1.05699 -3.00431,-0.20107z"></path><path d="M17,8.5v-5h2v5z"></path><path d="M20.5,7h-5v-2h5z"></path></g></g></svg>