<svg version="1.1" xmlns="http://www.w3.org/2000/svg" xmlns:xlink="http://www.w3.org/1999/xlink" width="24" height="24" viewBox="0,0,256,256"><g fill="#ffffff" fill-rule="evenodd" stroke="none" stroke-width="1" stroke-linecap="butt" stroke-linejoin="miter" stroke-miterlimit="10" stroke-dasharray="" stroke-dashoffset="0" font-family="none" font-weight="none" font-size="none" text-anchor="none" style="mix-blend-mode: normal"><g transform="translate(0,-0.00023) scale(10.66667,10.66667)"><path d="M2.00003,12c0,-5.52285 4.47715,-10 9.99997,-10c5.5229,0 10,4.47715 10,10c0,5.5228 -4.4771,10 -10,10c-1.7931,0 -3.47837,-0.4728 -4.93515,-1.3008l-3.7486,1.2495c-0.35933,0.1198 -0.7555,0.0262 -1.02333,-0.2416c-0.26783,-0.2678 -0.36135,-0.664 -0.24158,-1.0233l1.24954,-3.7486c-0.82805,-1.4568 -1.30085,-3.1421 -1.30085,-4.9352zM8.07352,7.00009c0.78105,-0.78105 2.04738,-0.78104 2.82838,0l1.2552,1.25514c0.3905,0.39052 0.3905,1.02369 0,1.41421l-0.9427,0.94266c0.521,0.9025 1.2712,1.6526 2.1736,2.1736l0.9427,-0.9427c0.1875,-0.1875 0.4419,-0.2929 0.7071,-0.2929c0.2652,0 0.5196,0.1054 0.7071,0.2929l1.2551,1.2552c0.7811,0.781 0.7811,2.0474 0,2.8284l-1.3741,1.3742c-0.6395,0.6394 -1.5853,0.8627 -2.4433,0.5767l0.3163,-0.9486l-0.3163,0.9486l-0.2136,-0.0712c-3.19881,-1.0662 -5.70893,-3.5764 -6.77521,-6.7752l-0.07121,-0.2136c-0.28597,-0.85793 -0.06268,-1.80379 0.57677,-2.44324z"></path></g></g></svg>