<svg version="1.1" xmlns="http://www.w3.org/2000/svg" xmlns:xlink="http://www.w3.org/1999/xlink" width="24" height="24" viewBox="0,0,256,256"><g fill="#ffffff" fill-rule="evenodd" stroke="none" stroke-width="1" stroke-linecap="butt" stroke-linejoin="miter" stroke-miterlimit="10" stroke-dasharray="" stroke-dashoffset="0" font-family="none" font-weight="none" font-size="none" text-anchor="none" style="mix-blend-mode: normal"><g transform="translate(2.66564,2.66741) scale(10.66667,10.66667)"><path d="M21.6472,3.23763c0.2838,0.24091 0.4103,0.61951 0.3283,0.98262l-3.5,15.49995c-0.0764,0.3381 -0.3223,0.6125 -0.65,0.7253c-0.3277,0.1128 -0.6905,0.0479 -0.9587,-0.1716l-4.5738,-3.7421l-1.9188,3.4538c-0.1964,0.3536 -0.5865,0.554 -0.98832,0.5078c-0.40182,-0.0461 -0.73626,-0.3298 -0.84738,-0.7187l-1.83249,-6.4137l-4.4021,-0.8804c-0.4331,-0.0867 -0.75807,-0.4471 -0.79948,-0.8869c-0.0414,-0.4397 0.21058,-0.8545 0.61989,-1.0205l18.49998,-7.49995c0.345,-0.13986 0.7391,-0.07652 1.0229,0.16438zM5.96689,11.1736l1.72925,0.3458c0.36717,0.0734 0.66255,0.3458 0.76541,0.7059l1.33677,4.6786l1.32758,-2.3896c0.1439,-0.259 0.3952,-0.4408 0.6863,-0.4965c0.291,-0.0557 0.5917,0.0206 0.8211,0.2082l4.2477,3.4754l2.7223,-12.05614z"></path><path d="M21.5328,4.84623c0.4385,-0.27604 0.5935,-0.84121 0.3572,-1.30227c-0.2363,-0.46107 -0.7856,-0.66535 -1.2657,-0.4707l-18.49998,7.50004c-0.40931,0.1659 -0.66129,0.5807 -0.61989,1.0204c0.04141,0.4398 0.36638,0.8003 0.79948,0.8869l5,1c0.25122,0.0502 0.51213,0.0021 0.72893,-0.1344z"></path><path d="M21.9755,4.22026c0.1021,-0.45239 -0.1202,-0.91565 -0.537,-1.119c-0.4168,-0.20336 -0.9187,-0.09344 -1.2124,0.2655l-9,11.00004c-0.3498,0.4274 -0.2868,1.0574 0.1407,1.4072l5.5,4.5c0.2682,0.2194 0.631,0.2844 0.9587,0.1716c0.3277,-0.1128 0.5736,-0.3873 0.65,-0.7253z"></path></g></g></svg>